<?xml version="1.0" encoding="utf-8"?>
<!-- Generator: Adobe Illustrator 26.0.1, SVG Export Plug-In . SVG Version: 6.00 Build 0)  -->
<svg version="1.1" id="Your_design" xmlns="http://www.w3.org/2000/svg" xmlns:xlink="http://www.w3.org/1999/xlink" x="0px"
	 y="0px" viewBox="0 0 632 126.6" style="enable-background:new 0 0 632 126.6;" xml:space="preserve">
<style type="text/css">
	.st0{fill:#FFFFFF;}
</style>
<g>
	<path class="st0" d="M201.1,5.8c0.6,0.3,1.3,0.2,2,0.3c8.8,0.9,16.3,4.3,21.9,11.3c0.3,0.3,0.3,0.5-0.1,0.8
		c-3.7,3.1-7.3,6.2-11,9.3c-0.4,0.3-0.5,0.3-0.9,0c-4.6-5.1-10.4-7.3-17.3-6.9c-2.1,0.1-4.2,0.5-6.2,1.5c-3.6,2-3.9,6.2-0.7,8.8
		c1.7,1.3,3.6,2,5.5,2.7c4,1.4,8.2,2.5,12.3,3.7c3.7,1.2,7.4,2.5,10.7,4.5c4.6,2.8,7.7,6.7,8.5,12.1c1.1,6.9-0.1,13.2-5,18.4
		c-2.9,3.2-6.7,5-10.8,6.2c-5.3,1.6-10.7,1.8-16.1,1.4c-4.6-0.3-9.1-1.2-13.4-2.9c-5.2-2.1-9.5-5.4-12.8-9.8
		c-0.2-0.3-0.3-0.5,0.1-0.8c3.7-3.1,7.4-6.3,11.2-9.4c0.4-0.3,0.5-0.3,0.8,0.1c3.7,4.8,8.7,7.4,14.7,8.2c3.2,0.4,6.4,0.4,9.6-0.4
		c1.3-0.3,2.6-0.9,3.7-1.8c2.5-2.1,2.4-5.8-0.2-7.7c-1.8-1.4-4-2-6.1-2.7c-4.4-1.4-9-2.5-13.4-4c-3.8-1.3-7.5-2.9-10.7-5.5
		c-4.1-3.3-6.4-7.6-7-12.7c-0.4-3.5-0.2-6.9,1-10.2c1.7-4.7,4.9-8.1,9.3-10.5c4-2.2,8.4-3.2,13-3.6c0.2,0,0.4,0.1,0.5-0.1
		c0.3,0,0.6,0,0.8,0c0.3,0.1,0.6,0,0.9,0.1c0.4,0,0.9,0.1,1.3-0.1c0.2,0,0.4,0,0.6,0c0.4,0.1,0.7,0,1.1,0.1c0.3,0,0.7,0.1,1-0.1
		C200.4,5.8,200.8,5.8,201.1,5.8z"/>
	<path class="st0" d="M146.6,98.9c1.5-0.1,3,0,4.5-0.1c0.4,0,0.3,0.3,0.3,0.5c0,1.8,0,3.5,0,5.3c0,0.2,0,0.4,0,0.7
		c0.1,0,0.2,0,0.2,0c2.9-2.8,9.2-2.3,10.9,3.4c0.9,3.1,0.8,6.1-0.9,8.9c-2.3,3.7-7.5,4.2-10.2,1.6c0,0-0.1-0.1-0.2-0.1
		c0,0-0.1,0.1-0.1,0.1c0,1.2,0,1.2-1.3,1.2c-1.1,0-2.3,0-3.4,0C146.6,113.2,146.6,106.1,146.6,98.9z"/>
	<path class="st0" d="M197.4,5.8C197,6,196.5,5.8,196,5.9c0,0,0-0.1,0-0.1c0,0,0,0,0,0C196.5,5.8,196.9,5.8,197.4,5.8z"/>
	<path class="st0" d="M199.1,5.9c-0.4,0-0.8,0.1-1.1-0.1c0.4,0,0.7,0,1.1,0C199.1,5.8,199.1,5.8,199.1,5.9
		C199.1,5.9,199.1,5.9,199.1,5.9z"/>
	<path class="st0" d="M199.1,5.9c0,0,0-0.1,0-0.1c0.3,0,0.6,0,1,0C199.7,6,199.4,5.8,199.1,5.9z"/>
	<path class="st0" d="M196,5.8c0,0,0,0.1,0,0.1c-0.3,0-0.6,0.2-0.8-0.1C195.5,5.8,195.7,5.8,196,5.8z"/>
	<path class="st0" d="M248,32.8c1.1-1.5,2.2-2.7,3.5-3.7c4.3-3.5,9.3-4.9,14.8-4.3c4.4,0.5,8.2,2.2,11,5.7c2.2,2.6,3.3,5.8,3.8,9.1
		c0.2,1.4,0.2,2.9,0.2,4.3c0,11.4,0,22.7,0,34.1c0,0.7-0.2,0.8-0.8,0.8c-4.9,0-9.7,0-14.6,0c-0.6,0-0.7-0.2-0.7-0.7
		c0-9.6,0-19.2,0-28.8c0-1.4-0.1-2.7-0.5-4.1c-1-3.4-3.6-5.5-7.1-5.7c-3.2-0.2-6.1,0.6-8.1,3.4c-1,1.4-1.5,3.1-1.6,4.8
		c-0.1,0.9-0.1,1.7-0.1,2.6c0,9.2,0,18.4,0,27.6c0,0.9,0,0.9-0.9,0.9c-4.8,0-9.7,0-14.5,0c-0.6,0-0.7-0.2-0.7-0.7
		c0-23.5,0-47,0-70.5c0-0.5,0.1-0.7,0.6-0.7c4.9,0,9.9,0,14.8,0c0.5,0,0.6,0.2,0.6,0.7c0,8.1,0,16.1,0,24.2
		C248,32.1,248,32.3,248,32.8z"/>
	<path class="st0" d="M423,61.3c1.2,1,2.4,2,3.5,3.1c2,2,4,4.1,6,6.2c0.4,0.4,0.3,0.6,0,0.9c-3.9,4.2-8.7,6.7-14.2,7.8
		c-7,1.5-14,1.2-20.7-1.4c-8.1-3.1-13.2-9-15.3-17.4c-1.7-7.1-1.6-14.1,1.2-20.9c3.4-8.2,9.5-13.2,18.1-15.1
		c6.2-1.3,12.3-1,18.2,1.3c7.4,2.9,11.9,8.4,13.8,16.1c1.1,4.5,1.1,9.1,0.4,13.7c-0.1,0.5-0.3,0.6-0.8,0.6c-11.5,0-23.1,0-34.6,0
		c-0.3,0-0.5-0.1-0.8,0.1c0.6,5.1,4.1,8.7,9.3,9.6c6.2,1,11.6-0.4,16.1-4.9c0,0,0.1-0.1,0.2-0.1C423.2,61.2,423.1,61.2,423,61.3z"/>
	<path class="st0" d="M321.7,72.8c-3.3,3.5-7.3,5.5-11.8,6.4c-5,1-10,0.9-14.7-1.2c-4.7-2.1-7.3-5.8-8.2-10.8
		c-0.6-3.4-0.5-6.8,0.9-10c1.8-4.3,5.2-7,9.5-8.6c4.4-1.7,9-1.9,13.7-1.6c3,0.2,5.9,0.7,8.8,1.4c0.2,0,0.4,0.2,0.4-0.2
		c0-2,0-4.1-0.9-6c-1.2-2.7-3.4-4.1-6.1-4.6c-5.6-1-10.6,0.6-15.1,4c-1.1,0.8-1.1,0.9-2-0.2c-2.5-2.9-4.9-5.7-7.4-8.6
		c-0.3-0.4-0.3-0.6,0.1-0.9c4-3.4,8.6-5.6,13.7-6.9c6.8-1.7,13.7-1.8,20.4,0.5c7.5,2.5,11.8,7.8,13,15.6c0.2,1.5,0.3,3.1,0.3,4.6
		c0,5.9,0,11.8,0,17.7c0,2.6,1,3.5,3.6,3.4c0.6,0,1.1-0.1,1.7-0.2c0.3-0.1,0.5-0.1,0.5,0.4c0,3.5,0,6.9,0,10.4
		c0,0.3-0.1,0.4-0.3,0.5c-4.2,1.5-8.5,2.2-13,1.2C325.4,78.2,323.1,76.1,321.7,72.8z"/>
	<path class="st0" d="M460.1,80.2c-6.6-0.2-13.2-1.7-19.2-5.5c-1.5-0.9-2.8-2-4.1-3.2c-0.3-0.3-0.4-0.5-0.1-0.9
		c2.8-3.1,5.6-6.2,8.5-9.3c0.3-0.3,0.4-0.3,0.7,0c4.8,4.3,10.4,6.3,16.8,6c1.5-0.1,3-0.3,4.4-0.9c1.5-0.7,2.2-1.9,1.9-3.3
		c-0.2-1.1-1-1.7-1.9-2.1c-1.5-0.8-3.1-1.2-4.7-1.5c-4.1-0.9-8.1-1.8-12.1-3.3c-2.1-0.8-4-1.7-5.8-3.1c-2.8-2.1-4.6-4.9-5.2-8.4
		c-0.7-3.8-0.6-7.5,1.2-11c1.9-3.9,5.1-6.2,9.1-7.7c3.6-1.3,7.3-1.8,11.1-1.8c5.3,0,10.5,0.7,15.4,2.8c2.9,1.2,5.5,2.9,7.8,4.9
		c0.4,0.3,0.4,0.5,0,0.8c-2.8,3-5.6,5.9-8.4,8.9c-0.4,0.4-0.6,0.4-1,0c-4.7-4-10.1-5.4-16.2-4.8c-0.9,0.1-1.8,0.4-2.6,1
		c-1.8,1.2-1.9,3.5-0.1,4.7c1.6,1.1,3.4,1.5,5.2,2c3.7,1,7.4,1.7,11,2.9c2.7,0.9,5.3,2,7.6,3.8c2.8,2.2,4.4,5.1,4.9,8.7
		c0.5,3.7,0.2,7.3-1.6,10.6c-2,3.9-5.4,6.2-9.4,7.7C469.3,79.8,465,80.2,460.1,80.2z"/>
	<path class="st0" d="M363.3,32.8c1.2-1.9,2.5-3.6,4.1-5.1c4.4-4.1,11.2-4.1,15.3-0.1c0.4,0.4,0.5,0.6,0.2,1.2
		c-2,4.2-4,8.4-5.9,12.6c-0.2,0.5-0.4,0.5-0.9,0.2c-1.8-1.2-3.9-1.7-6-1.4c-1.9,0.3-3.4,1.3-4.5,2.8c-1.3,1.7-1.8,3.7-2,5.8
		c-0.1,0.8-0.1,1.5-0.1,2.3c0,9,0,17.9,0,26.9c0,0.7-0.2,0.8-0.8,0.8c-4.9,0-9.8,0-14.7,0c-0.6,0-0.7-0.2-0.7-0.8
		c0-17.2,0-34.4,0-51.7c0-0.6,0.1-0.7,0.7-0.7c4.8,0,9.7,0,14.5,0c0.6,0,0.7,0.1,0.7,0.7C363.3,28.5,363.3,30.7,363.3,32.8z"/>
	<path class="st0" d="M147.6,52.2c0-8.6,0-17.2,0-25.8c0-0.6,0.2-0.7,0.8-0.7c4.9,0,9.8,0,14.7,0c0.5,0,0.7,0.1,0.7,0.7
		c0,17.3,0,34.5,0,51.8c0,0.6-0.2,0.7-0.7,0.7c-4.9,0-9.8,0-14.8,0c-0.5,0-0.7-0.1-0.7-0.7C147.6,69.5,147.6,60.9,147.6,52.2z"/>
	<path class="st0" d="M201.1,109.1c1.7,0.7,2.8,1.9,3.2,3.7c0.6,2.8-0.3,6.4-4.8,7.4c-0.9,0.2-1.8,0.3-2.7,0.3c-3.1,0-6.1,0-9.2,0
		c-0.5,0-0.6-0.1-0.6-0.6c0-6.8,0-13.6,0-20.4c0-0.3-0.1-0.6,0.4-0.6c3.3,0,6.7,0,10,0.1c1.6,0,3,0.4,4.3,1.4
		c2.9,2.2,2.7,6.7-0.5,8.6C201.3,108.9,201.2,109,201.1,109.1z"/>
	<path class="st0" d="M282.5,120.4c-1.9,0-3.7,0-5.4,0c-0.4,0-0.5-0.2-0.6-0.5c-1.2-2.1-2.3-4.2-3.4-6.3c-0.2-0.4-0.4-0.6-0.9-0.5
		c-0.6,0-1.2,0-1.8,0c-0.5,0-0.7,0.1-0.7,0.7c0,2,0,4,0,6c0,0.5-0.1,0.6-0.6,0.6c-1.3,0-2.6,0-3.9,0c-0.4,0-0.5-0.1-0.5-0.5
		c0-6.9,0-13.7,0-20.6c0-0.3,0.1-0.5,0.4-0.5c3.3,0.1,6.7-0.1,10,0.1c1.4,0.1,2.8,0.5,3.9,1.3c4,2.7,3.6,9.2-0.7,11.6
		c-0.5,0.3-0.5,0.4-0.3,0.9C279.6,115.2,281,117.7,282.5,120.4z"/>
	<path class="st0" d="M155.7,20c-2.5,0-5,0-7.4,0c-0.5,0-0.6-0.1-0.6-0.6c0-3.9,0-7.8,0-11.8c0-0.5,0.1-0.6,0.6-0.6c5,0,10,0,15,0
		c0.4,0,0.6,0.1,0.6,0.6c0,3.9,0,7.9,0,11.8c0,0.5-0.2,0.6-0.6,0.6C160.6,19.9,158.1,20,155.7,20z"/>
	<path class="st0" d="M333.6,104.5c-0.1,0.3-0.3,0.5-0.5,0.6c-1.4,1.6-2.9,3.2-4.3,4.7c-0.3,0.3-0.4,0.6-0.1,1
		c1.7,2.9,3.3,5.9,5,8.8c0.1,0.2,0.2,0.4,0.4,0.7c-1.8,0-3.5,0-5.2,0c-0.3,0-0.3-0.3-0.4-0.5c-1.1-1.9-2.2-3.9-3.3-5.9
		c-0.8,0.8-1.5,1.6-2.2,2.5c-0.1,0.1-0.1,0.4-0.1,0.5c0,1,0,1.9,0,2.9c0,0.4-0.1,0.5-0.5,0.5c-1.3,0-2.6,0-3.9,0
		c-0.4,0-0.5-0.1-0.5-0.5c0-6.9,0-13.7,0-20.6c0-0.4,0.2-0.5,0.5-0.5c1.2,0,2.4,0,3.6,0c0.5,0,0.6,0.1,0.6,0.6c0,3.7,0,7.4,0,11.2
		c0.3,0.1,0.3-0.2,0.5-0.3c1.6-1.8,3.2-3.6,4.7-5.4c0.3-0.4,0.6-0.5,1.1-0.5C330.6,104.5,332.1,104.5,333.6,104.5z"/>
	<path class="st0" d="M263.4,120.4c-1.8,0-3.5,0-5.1,0c-0.4,0-0.5-0.2-0.6-0.5c-1-1.7-1.9-3.5-2.9-5.2c-0.1-0.2-0.3-0.4-0.4-0.7
		c-0.7,0.8-1.4,1.5-2.1,2.3c-0.2,0.2-0.2,0.5-0.2,0.7c0,0.9,0,1.9,0,2.8c0,0.4-0.1,0.5-0.5,0.5c-1.3,0-2.5,0-3.8,0
		c-0.4,0-0.5-0.1-0.5-0.4c0-6.9,0-13.8,0-20.7c0-0.3,0.1-0.4,0.4-0.4c1.3,0,2.5,0,3.8,0c0.5,0,0.5,0.2,0.5,0.6c0,3.5,0,7,0,10.5
		c0,0.2,0,0.4,0,0.9c0.4-0.5,0.7-0.8,1.1-1.2c1.4-1.6,2.7-3.2,4.1-4.7c0.2-0.3,0.5-0.4,0.9-0.4c1.6,0,3.2,0,4.8,0
		c0,0.3-0.2,0.4-0.3,0.5c-1.5,1.6-2.9,3.3-4.4,4.9c-0.3,0.3-0.3,0.6-0.1,1c1.7,2.9,3.3,5.9,5,8.8C263.1,119.8,263.2,120,263.4,120.4
		z"/>
	<path class="st0" d="M223,111.3c0.3-1.9-0.7-3.2-2.5-3.3c-1.5-0.1-2.8,0.3-3.9,1.2c-0.3,0.3-0.5,0.2-0.8-0.1
		c-0.6-0.8-1.3-1.5-2-2.3c-0.3-0.3-0.2-0.4,0.1-0.6c3.1-2.3,6.5-3,10.2-1.7c2.3,0.8,3.6,2.6,3.7,5.1c0.1,2,0,4,0,6
		c0,1.1,0.4,1.4,1.4,1.2c0.3-0.1,0.4,0,0.4,0.3c0,0.8,0,1.7,0,2.5c0,0.2,0,0.4-0.3,0.5c-1.1,0.4-2.3,0.5-3.5,0.3
		c-0.9-0.1-1.6-0.7-2.1-1.5c-0.2-0.4-0.3-0.4-0.7-0.1c-1.9,1.7-4.1,2.1-6.6,1.5c-2-0.5-3.2-1.9-3.5-4c-0.2-2,0.6-3.8,2.4-4.7
		c1.8-1,3.8-1,5.8-0.8C221.8,111,222.4,111.2,223,111.3z"/>
	<path class="st0" d="M299.6,112.3c0,4.9-3.6,8.5-8.6,8.5c-5,0-8.6-3.6-8.6-8.5c0-4.9,3.6-8.5,8.6-8.5
		C296,103.9,299.6,107.4,299.6,112.3z"/>
	<path class="st0" d="M171.7,114.8c0.5-2,1-3.8,1.5-5.6c0.4-1.4,0.8-2.8,1.1-4.2c0.1-0.4,0.2-0.6,0.8-0.6c1.4,0.1,2.8,0,4.3,0
		c0,0.6-0.3,1-0.4,1.5c-1.5,4.6-3.1,9.3-4.7,13.9c-0.5,1.4-1.1,2.8-2.1,3.9c-2,2.2-5.8,2.8-8.3,1.1c-0.3-0.2-0.4-0.3-0.2-0.6
		c0.5-0.9,0.9-1.7,1.4-2.6c0.1-0.3,0.3-0.3,0.6-0.2c0.7,0.4,1.4,0.5,2.2,0.4c1.2-0.2,1.6-1,1.2-2.1c-1.9-4.9-3.8-9.7-5.8-14.6
		c-0.2-0.6-0.1-0.7,0.5-0.7c1.3,0,2.6,0,3.9,0c0.4,0,0.6,0.2,0.7,0.5c1,3.1,2,6.1,3,9.2C171.5,114.3,171.6,114.5,171.7,114.8z"/>
	<path class="st0" d="M238.6,120.7c-2.6,0-4.9-0.7-6.5-2.8c-3.3-4.1-1.9-10.9,2.5-13.2c3.3-1.7,7.9-1,10.2,1.4
		c0.4,0.5,0.8,1,1.1,1.6c0.2,0.3,0.2,0.5-0.2,0.7c-1.1,0.5-2.1,1.1-3.2,1.7c-0.3,0.2-0.5,0.2-0.7-0.2c-0.6-1.1-1.5-1.7-2.8-1.8
		c-2.2-0.1-3.8,1.3-4,3.6c-0.1,0.6,0,1.2,0.1,1.8c0.4,1.5,1.2,2.6,2.8,2.9c1.6,0.3,3-0.1,3.9-1.5c0.3-0.5,0.5-0.5,1-0.2
		c0.9,0.5,1.9,1,2.8,1.4c0.4,0.2,0.4,0.4,0.2,0.7c-1.4,2.4-3.5,3.5-6.2,3.8C239.4,120.7,239,120.7,238.6,120.7z"/>
	<path class="st0" d="M309.4,120.7c-2.6,0-5-0.7-6.7-2.9c-1.5-2-1.8-4.4-1.6-6.8c0.6-5.2,4.9-7.6,9.6-7.1c2.6,0.3,4.6,1.5,5.9,3.8
		c0.2,0.4,0.2,0.6-0.2,0.8c-1.1,0.5-2.1,1.1-3.2,1.7c-0.2,0.1-0.3,0.3-0.5-0.1c-0.9-1.8-2.7-2.2-4.1-1.9c-1.6,0.3-2.6,1.6-2.8,3.5
		c-0.1,0.7,0,1.4,0.2,2.1c0.4,1.5,1.3,2.4,2.9,2.7c1.6,0.2,2.9-0.3,3.8-1.6c0.3-0.5,0.5-0.5,1-0.2c0.9,0.5,1.8,1,2.7,1.4
		c0.6,0.2,0.5,0.5,0.3,1c-1.2,2-2.9,3-5.1,3.5C310.8,120.7,310.1,120.7,309.4,120.7z"/>
	<path class="st0" d="M211.1,109.7c0,3.4,0,6.8,0,10.1c0,0.5-0.1,0.6-0.6,0.6c-1.2,0-2.4,0-3.7,0c-0.4,0-0.6,0-0.6-0.5
		c0-6.8,0-13.7,0-20.5c0-0.5,0.2-0.5,0.6-0.5c1.2,0,2.4,0,3.7,0c0.5,0,0.6,0.2,0.6,0.6C211.1,102.9,211.1,106.3,211.1,109.7z"/>
	<path class="st0" d="M489.3,74.1c0-2.7,1.3-4.5,3.7-5.1c2.7-0.7,5.1,0.2,6.2,2.4c1.3,2.6,0.8,7.1-3.1,7.9
		C492.2,80.1,489.2,78.1,489.3,74.1z"/>
	<path class="st0" d="M151.5,112.3c0-0.6,0-1.3,0-1.9c0-0.5,0.2-0.9,0.5-1.3c1.1-1,2.5-1.4,3.9-0.9c1.5,0.5,2.2,1.7,2.3,3.2
		c0.1,1.1,0.1,2.1-0.3,3.1c-0.5,1.2-1.5,1.9-2.8,2c-1.4,0.1-2.6-0.3-3.5-1.3c-0.2-0.2-0.1-0.4-0.1-0.6
		C151.5,113.8,151.5,113,151.5,112.3z"/>
	<path class="st0" d="M397.8,46.3c0.6-5.1,4.1-9.6,10.8-9.4c3.4,0.1,6.3,1.3,8.2,4.3c0.9,1.4,1.3,3,1.5,4.6c0.1,0.4,0,0.6-0.5,0.6
		c-4.3,0-8.6,0-13,0C402.5,46.3,400.2,46.3,397.8,46.3z"/>
	<path class="st0" d="M320.4,59.6c0.2,2.8-0.6,5.3-2.9,7.1c-1.7,1.3-3.6,2-5.7,2.2c-1.4,0.1-2.8,0.1-4.2-0.3
		c-2.6-0.7-4.2-2.6-4.4-5.2c-0.2-2.8,1-5.1,3.4-6.2c1.2-0.6,2.6-0.9,3.9-0.9c3.2-0.1,6.3,0.3,9.4,1c0.4,0.1,0.5,0.2,0.5,0.6
		C320.4,58.4,320.4,59,320.4,59.6z"/>
	<path class="st0" d="M194.6,116.2c-0.8,0-1.4,0-2.1,0c-0.4,0-0.5-0.1-0.5-0.5c0-1.3,0-2.5,0-3.8c0-0.4,0.1-0.5,0.5-0.5
		c1.3,0,2.6,0,3.9,0c1.9,0.1,2.9,1.2,2.6,2.8c-0.2,1-0.9,1.6-2,1.8C196.2,116.3,195.3,116.2,194.6,116.2z"/>
	<path class="st0" d="M194.6,103c0.7,0,1.5-0.1,2.3,0.1c1.3,0.3,1.8,1,1.8,2.2c0,1.2-0.7,2-1.9,2.1c-1.5,0.2-2.9,0-4.4,0.1
		c-0.3,0-0.3-0.2-0.3-0.4c0-1.2,0-2.5,0-3.7c0-0.4,0.2-0.4,0.5-0.4C193.2,103,193.8,103,194.6,103z"/>
	<path class="st0" d="M269.6,105.9c0-0.8,0-1.6,0-2.3c0-0.3,0.1-0.5,0.5-0.5c1.3,0,2.6,0,3.9,0.1c1.8,0.1,2.8,1.1,2.8,2.8
		c0,1.6-1.1,2.8-2.8,2.9c-1.3,0.1-2.6,0-3.9,0c-0.3,0-0.4-0.2-0.4-0.4C269.6,107.6,269.6,106.8,269.6,105.9z"/>
	<path class="st0" d="M223.1,114.7c0.2,2.4-2.8,3.2-4.3,2.4c-0.7-0.4-0.9-1-0.8-1.7c0.1-0.8,0.5-1.3,1.2-1.6c1-0.4,1.9-0.2,2.9-0.1
		c0.1,0,0.1,0,0.2,0C223.2,113.9,223.1,113.8,223.1,114.7z"/>
	<path class="st0" d="M287.2,112.3c-0.3-3.1,2.5-5.4,5.4-4.2c0.5,0.2,0.9,0.6,1.3,0.9c1.6,1.6,1.5,6-1.1,7.2
		c-2.5,1.2-5.5-0.5-5.6-3.3C287.2,112.6,287.2,112.4,287.2,112.3z"/>
	<path class="st0" d="M490.1,73.9c-0.1-2.7,1.9-4.8,4.4-4.7c2.5,0,4.5,2.2,4.4,4.8c0,0.5-0.1,1-0.2,1.5c-0.5,2.2-2.2,3.4-4.8,3.2
		c-2.2-0.2-3.6-1.8-3.8-4.1C490.1,74.3,490.1,74.1,490.1,73.9z"/>
	<path class="st0" d="M496.5,76.5c-0.7,0.2-1.2,0-1.4-0.7c-0.2-0.5-0.4-1.2-1.2-1c-0.3,0.1-0.5,0.1-0.4,0.4c0,0.3,0,0.5,0,0.8
		c0,0.3,0,0.6-0.5,0.6c-0.5,0-0.5-0.2-0.5-0.6c0-1.4,0-2.8,0-4.2c0-0.4,0.1-0.5,0.5-0.5c0.6,0,1.2,0,1.9,0c0.9,0,1.5,0.4,1.7,1.1
		c0.3,0.8,0.1,1.5-0.6,2.1c-0.2,0.2-0.3,0.3-0.1,0.6C496,75.5,496.2,76,496.5,76.5z"/>
	<path class="st0" d="M493.4,73.1c-0.1-0.5-0.1-1,0.7-0.9c1.1,0.1,1.4,0.2,1.5,0.9c0,0.7-0.4,0.9-1.5,1
		C493.2,74.1,493.5,73.5,493.4,73.1z"/>
</g>
</svg>
