<?xml version="1.0" encoding="utf-8"?>
<!-- Generator: Adobe Illustrator 26.0.1, SVG Export Plug-In . SVG Version: 6.00 Build 0)  -->
<svg version="1.1" id="Layer_1" xmlns="http://www.w3.org/2000/svg" xmlns:xlink="http://www.w3.org/1999/xlink" x="0px" y="0px"
	 viewBox="0 0 152 22" style="enable-background:new 0 0 152 22;" xml:space="preserve">
<style type="text/css">
	.st0{fill:#FFFFFF;}
</style>
<desc>Created with Sketch.</desc>
<g>
	<path class="st0" d="M40.9,16.8v-5.5c0-4.1-2.8-6.3-7.3-6.3c-3,0-5.5,1.1-7.1,2.5l2.7,3C30.3,9.6,31.7,9,33,9
		c2.1,0,3.1,1.1,3.1,2.8v0.5c-1-0.2-2.3-0.5-3.8-0.5c-3.8,0-6.3,1.8-6.3,4.9c0,3.1,2.1,4.8,5.3,4.8c2.2,0,4.2-0.9,5.2-2.1
		c0.6,1.6,2,2,3.3,2c0.9,0,2-0.1,2.8-0.5v-3.3c-0.2,0.1-0.5,0.1-0.8,0.1C41.2,17.7,40.9,17.3,40.9,16.8z M36.2,15.9
		c0,1.4-1.4,2.4-3,2.4c-1.5,0-2.2-0.8-2.2-1.8c0-1.1,0.8-1.9,2.5-1.9c1,0,1.9,0.2,2.7,0.4V15.9z"/>
	<rect x="19.3" class="st0" width="4.8" height="21.1"/>
	<path class="st0" d="M150.4,18.2c-1,0-1.6,0.6-1.6,1.6c0,0.9,0.6,1.6,1.6,1.6s1.6-0.6,1.6-1.6C151.9,18.8,151.4,18.2,150.4,18.2z
		 M150.4,21.1c-0.8,0-1.3-0.4-1.3-1.3c0-0.9,0.5-1.3,1.3-1.3c0.8,0,1.3,0.5,1.3,1.3C151.7,20.6,151.1,21.1,150.4,21.1z"/>
	<path class="st0" d="M14,10c2.1-1.1,2.8-2.6,2.8-4.4c0-3.1-2.2-5.6-7.2-5.6H0v21.1h10c5,0,7.4-2.5,7.4-6.1
		C17.4,12.7,16.2,10.9,14,10z M5,4.1h4c1.6,0,2.7,0.7,2.7,2.1c0,1.4-0.9,2.3-2.7,2.3H5V4.1z M9.4,17H5v-4.6h4.3
		c1.7,0,2.8,0.9,2.8,2.3C12.1,16.1,11.2,17,9.4,17z"/>
	<path class="st0" d="M104.3,5c-4.7,0-8.6,3.2-8.6,8.3c0,5.1,4,8.3,8.6,8.3c4.6,0,8.6-3.2,8.6-8.3C112.9,8.1,108.9,5,104.3,5z
		 M104.3,17.4c-2.1,0-3.9-1.5-3.9-4.2c0-2.7,1.8-4.1,3.9-4.1c2.1,0,3.9,1.4,3.9,4.1C108.1,15.9,106.3,17.4,104.3,17.4z"/>
	<path class="st0" d="M95,6.9C95,2.3,91.6,0,86.8,0h-8.9v21.1h5V14h3.1l4,7.1h5.8l-4.6-8C93.5,11.8,95,9.8,95,6.9z M86.5,9.8h-3.7
		V4.2h3.7c2.3,0,3.4,1,3.4,2.8C89.9,8.5,88.8,9.8,86.5,9.8z"/>
	<polygon class="st0" points="147.1,5.5 141.7,5.5 136.1,11.7 136.1,0 131.3,0 131.3,21.2 136.1,21.2 136.1,17.3 138.4,14.9 
		142,21.2 147.4,21.2 147.4,21.1 141.8,11.3 	"/>
	<path class="st0" d="M122.8,9.1c1.6,0,2.7,0.7,3.5,2.2l4-2.1c-1.3-2.8-3.8-4.3-7.5-4.3c-4.4,0-8.3,2.8-8.3,8.2
		c0,5.3,3.5,8.3,8.3,8.3c3.4,0,6.2-1.3,7.6-4.3l-3.9-2c-0.7,1.3-1.8,2.1-3.5,2.1c-2.2,0-3.7-1.6-3.7-4.2
		C119.2,10.7,120.8,9.1,122.8,9.1z"/>
	<polygon class="st0" points="76.2,5.5 70.8,5.5 65.3,11.7 65.3,0 60.5,0 60.5,21.2 65.3,21.2 65.3,17.3 67.5,14.9 71.1,21.2 
		76.6,21.2 76.6,21.1 70.9,11.3 	"/>
	<path class="st0" d="M151,19.5c0-0.3-0.2-0.5-0.6-0.5h-0.6v1.6h0.3V20h0.4l0.3,0.5h0.3l-0.3-0.6C150.9,19.9,151,19.7,151,19.5z
		 M150.4,19.7H150v-0.5h0.4c0.2,0,0.3,0.1,0.3,0.3C150.7,19.7,150.6,19.7,150.4,19.7z"/>
	<path class="st0" d="M51.9,9.1c1.6,0,2.7,0.7,3.5,2.2l4-2.1C58,6.5,55.5,5,51.8,5c-4.4,0-8.3,2.8-8.3,8.2c0,5.3,3.5,8.3,8.3,8.3
		c3.4,0,6.2-1.3,7.6-4.3l-3.9-2c-0.7,1.3-1.8,2.1-3.5,2.1c-2.2,0-3.7-1.6-3.7-4.2C48.2,10.7,49.9,9.1,51.9,9.1z"/>
</g>
</svg>
