<?xml version="1.0" encoding="utf-8"?>
<!-- Generator: Adobe Illustrator 27.3.1, SVG Export Plug-In . SVG Version: 6.00 Build 0)  -->
<svg version="1.1" id="Layer_1" xmlns="http://www.w3.org/2000/svg" xmlns:xlink="http://www.w3.org/1999/xlink" x="0px" y="0px"
	 viewBox="0 0 456 143" style="enable-background:new 0 0 456 143;" xml:space="preserve">
<style type="text/css">
	.st0{fill:#FFFFFF;}
</style>
<path class="st0" d="M446,128.6c-67.5,0-135,0-202.5,0c-32,0-63.9,0-95.9,0c-0.5,0-1,0-1.6,0c0-16.9,0-33.8,0-50.8
	c100,0,200,0,299.9,0C446,94.7,446,111.7,446,128.6z M430.2,118.9c0-10.5,0-21,0-31.4c-2.1,0-4.1,0-6.1,0c0,7,0,13.9,0,21
	c-0.1-0.2-0.2-0.2-0.2-0.3c-4.1-6.8-8.1-13.5-12.2-20.3c-0.2-0.3-0.4-0.4-0.8-0.4c-1.8,0-3.6,0-5.3,0c-0.5,0-0.6,0.1-0.6,0.6
	c0,10.1,0,20.3,0,30.4c0,0.1,0,0.2,0,0.4c2,0,4,0,6.1,0c0-6.9,0-13.7,0-20.5c0.5,0.5,0.8,1.1,1.1,1.6c2,3.3,3.9,6.5,5.9,9.8
	c1.8,2.9,3.5,5.8,5.3,8.7c0.1,0.2,0.4,0.4,0.6,0.4C426,118.9,428.1,118.9,430.2,118.9z M218.8,103.2c-0.1,1.9,0,3.7,0.5,5.5
	c1.1,4.1,3.4,7.3,7.2,9.2c4.1,2,8.4,2.1,12.7,0.9c4.5-1.2,7.6-4.1,9.2-8.5c1.6-4.6,1.6-9.3,0.1-13.9c-1.5-4.4-4.5-7.3-9-8.7
	c-3.4-1-6.9-1-10.3-0.2c-4.4,1.1-7.3,3.9-9.1,8C219,98,218.7,100.6,218.8,103.2z M290.6,118.9c0-0.3,0-0.5,0-0.7c0-2.6,0-5.3,0-7.9
	c0-0.5,0.2-0.9,0.5-1.2c1-0.9,1.9-1.9,2.8-2.8c0.6-0.6,1.2-1.1,1.8-1.6c0,0,0.1,0.2,0.2,0.4c2.7,4.5,5.3,9,8,13.5
	c0.2,0.4,0.5,0.5,0.9,0.5c2.4,0,4.9,0,7.3,0c0.2,0,0.4,0,0.6,0c-2.8-4.2-5.5-8.4-8.3-12.6c-1.3-2-2.6-4-3.9-5.9
	c-0.3-0.4-0.3-0.7,0.1-1.1c0.8-0.8,1.6-1.6,2.3-2.4c2.8-2.8,5.5-5.7,8.3-8.5c0.2-0.2,0.5-0.5,0.7-0.9c-0.2,0-0.3,0-0.4,0
	c-2.6,0-5.3,0-7.9,0c-0.3,0-0.6,0.2-0.8,0.4c-4,4.3-8,8.7-12,13c-0.1,0.1-0.1,0.3-0.2,0.4c-0.1,0-0.1-0.1-0.2-0.1
	c0-4.5,0-9.1,0-13.7c-2,0-4,0-5.9,0c-0.5,0-0.6,0.1-0.6,0.6c0,10.1,0,20.2,0,30.4c0,0.2,0,0.3,0,0.5
	C286.3,118.9,288.4,118.9,290.6,118.9z M352.3,92.8c5.7,0,11.4,0,17,0c0-1.8,0-3.5,0-5.3c-7.8,0-15.7,0-23.5,0c0,10.5,0,20.9,0,31.4
	c8.1,0,16.1,0,24.2,0c0-1.8,0-3.5,0-5.3c-5.9,0-11.7,0-17.6,0c0-2.9,0-5.8,0-8.7c5.3,0,10.6,0,15.8,0c0-1.8,0-3.5,0-5.3
	c-5.3,0-10.5,0-15.8,0C352.3,97.3,352.3,95.1,352.3,92.8z M177.9,118.9c0-8.7,0-17.4,0-26.1c3.1,0,6.2,0,9.3,0c0-1.8,0-3.5,0-5.3
	c-8.4,0-16.8,0-25.2,0c0,1.8,0,3.5,0,5.3c3.1,0,6.1,0,9.2,0c0,8.7,0,17.4,0,26.1C173.5,118.9,175.6,118.9,177.9,118.9z"/>
<path class="st0" d="M446,70.8c-0.9,0.2-1.8,0.4-2.8,0.5c-1.8,0.3-3.5,0.2-5.2-0.1c-3.1-0.6-5.7-2.4-5.9-6.7
	c-0.1-2.6-0.2-5.1-0.3-7.7c0-6.5,0-12.9,0-19.4c0-0.8,0-0.8-0.8-0.8c-1.2,0-2.3,0-3.5,0c-0.3,0-0.5,0-0.5-0.4c0-1.6,0-3.2,0-4.9
	c1.6,0,3.2,0,4.8,0c0-0.2,0-0.3,0-0.4c0-2.9,0-5.7,0-8.6c0-0.5,0.1-0.7,0.5-1c1.9-1.1,3.7-2.2,5.6-3.3c0.1-0.1,0.2-0.1,0.4-0.2
	c0,4.5,0,8.9,0,13.5c2.3,0,4.5,0,6.7,0c0,1.8,0,3.5,0,5.3c-2.2,0-4.4,0-6.6,0c0,0.3,0,0.4,0,0.6c0,8,0,16.1,0,24.1
	c0,1,0.1,1.9,0.8,2.7c0.6,0.6,1.3,1,2.1,1c1,0,2.1,0,3.1,0c0.5,0,0.7,0.1,0.8,0.6c0.2,1.4,0.3,2.8,0.5,4.1c0,0.2,0.2,0.5,0.3,0.7
	C446,70.6,446,70.7,446,70.8z"/>
<path class="st0" d="M100.6,131.3c-8.9,0-17.9,0-26.8,0c-0.9,0-0.8,0-0.8-0.9c0-4.8,0-9.7,0-14.5c0-12.2,0-24.4,0-36.6
	c0-0.7,0-1.4-0.1-2.1c0-0.4,0.2-0.6,0.5-0.7c0.4,0,0.9-0.1,1.3-0.1c17.3,0,34.6,0,51.9,0c1.9,0,1.6-0.1,1.6,1.6
	c0,14.9,0,29.7,0,44.6c0,2.7,0,5.3,0,8c0,0.5-0.2,0.7-0.7,0.7C118.6,131.4,109.6,131.4,100.6,131.3
	C100.6,131.4,100.6,131.4,100.6,131.3z"/>
<path class="st0" d="M12,131.3c0-0.3,0-0.4,0-0.6c0-17.7,0-35.4,0-53.2c0-0.9,0-0.9,0.9-1c0.9,0,1.9,0,2.9,0c16.7,0,33.4,0,50.2,0
	c1.2,0,1.2,0,1.2,1.2c0,17.5,0,35,0,52.5c0,1.1,0.2,1.1-1.1,1.1c-17.5,0-35.1,0-52.6,0C13,131.4,12.6,131.3,12,131.3z"/>
<path class="st0" d="M128.3,16.4c0,0.7,0,1.5,0,2.2c0,16.2,0,32.3,0,48.5c0,1,0,2.1,0,3.1c0,0.4-0.1,0.6-0.6,0.6c-0.4,0-0.8,0-1.2,0
	c-17.1,0-34.3,0-51.4,0c-0.6,0-1.2,0-1.8,0c-0.3,0-0.5-0.1-0.5-0.5c0-7.6,0-15.2,0-22.7c0-9.8,0-19.6,0-29.3c0-0.6,0-1.2,0-1.9
	C91.4,16.4,109.8,16.4,128.3,16.4z"/>
<path class="st0" d="M67.2,16.4c0,0.7,0,1.4,0,2c0,16.7,0,33.3,0,50c0,0.6,0,1.2,0,1.8c0,0.5-0.1,0.6-0.6,0.6c-1.2,0-2.5,0-3.7,0
	c-16.3,0-32.5,0-48.8,0c-0.5,0-1.1,0-1.6,0c-0.2,0-0.4-0.3-0.4-0.4c0-5,0-10,0-14.9c0-12.4,0-24.8,0-37.3c0-0.6,0-1.1,0-1.7
	C30.5,16.4,48.8,16.4,67.2,16.4z"/>
<path class="st0" d="M190.8,70.5c0-15.1,0-30.2,0-45.2c0,0-0.1,0-0.1,0c-0.4,1-0.7,2.1-1.1,3.1c-4.7,13.7-9.4,27.4-14.1,41.1
	c-0.4,1-0.4,1-1.5,1c-1.5,0-3.1,0-4.6,0c-0.5,0-0.7-0.1-0.8-0.6c-3.6-10.5-7.2-21-10.8-31.5c-1.4-4.1-2.8-8.3-4.2-12.4
	c-0.1-0.2-0.2-0.4-0.4-0.6c0,15,0,30,0,45c-2.3,0-4.6,0-6.8,0c0-17.9,0-35.7,0-53.6c0.2,0,0.4,0,0.6,0c3.1,0,6.2,0,9.3,0
	c0.5,0,0.7,0.1,0.8,0.6c4.9,14.8,9.9,29.5,14.8,44.2c0.1,0.3,0.2,0.7,0.4,1.2c0.2-0.4,0.3-0.7,0.4-1c2.9-8.5,5.8-17.1,8.6-25.6
	c2.1-6.3,4.3-12.6,6.4-18.9c0.1-0.3,0.2-0.5,0.6-0.5c3,0,6,0,9,0c0.1,0,0.2,0,0.4,0.1c0,0.3,0,0.5,0,0.7c0,17.4,0,34.8,0,52.1
	c0,0.8,0,0.8-0.8,0.8c-1.8,0-3.6,0-5.3,0C191.3,70.5,191.1,70.5,190.8,70.5z"/>
<path class="st0" d="M321.9,50.9c-0.1,2.8-0.3,5.6-1.1,8.3c-1.5,5-4.6,8.6-9.5,10.7c-5,2.1-10.1,2.2-15,0.2
	c-5.8-2.3-9-6.8-10.2-12.8c-0.4-1.9-0.7-3.8-0.7-5.7c-0.1-4.7,0.6-9.3,3.2-13.4c2.6-4.2,6.5-6.5,11.3-7.4c3.8-0.7,7.5-0.5,11.1,1
	c5.4,2.2,8.6,6.4,10.1,11.9C321.7,46,321.8,48.4,321.9,50.9z M315.2,51.2c0-3.7-0.4-6.3-1.3-8.5c-2.2-5.2-6.7-7.6-12.2-6.8
	c-4.1,0.6-6.8,3.1-8.2,6.9c-1.9,5.4-1.9,10.9,0,16.3c1,2.9,3.1,5,5.9,6.2c6.3,2.5,12.2-0.7,14.3-5.9
	C314.8,56.6,315.1,53.7,315.2,51.2z"/>
<path class="st0" d="M401.5,50.4c-0.1,3.3-0.3,6.1-1.1,8.9c-1.7,5.7-5.5,9.4-11.1,11.3c-4.9,1.6-9.8,1.4-14.5-0.9
	c-5.2-2.5-8.1-6.8-9.2-12.3c-0.4-1.9-0.7-3.8-0.7-5.7c-0.1-4.8,0.6-9.4,3.3-13.5c2.6-4.1,6.5-6.4,11.2-7.3c3.7-0.7,7.5-0.5,11,1
	c5.4,2.2,8.7,6.4,10.2,12c0.2,0.8,0.4,1.6,0.5,2.4C401.3,47.6,401.4,49.2,401.5,50.4z M394.8,51.2c0-3.7-0.4-6.3-1.3-8.5
	c-2.2-5.2-6.7-7.7-12.2-6.8c-4.1,0.6-6.8,3.1-8.2,6.9c-2,5.5-1.9,11.1,0.1,16.6c1,2.8,3.1,4.9,5.8,5.9c6.3,2.5,12.2-0.7,14.3-5.9
	C394.5,56.6,394.7,53.7,394.8,51.2z"/>
<path class="st0" d="M327.1,58.9c2.1-0.3,4.2-0.6,6.3-0.9c0.1,0.5,0.2,0.9,0.3,1.3c0.9,3.7,3.7,6.2,7.5,6.7c2.4,0.3,4.7,0.3,6.9-0.5
	c2.1-0.8,3.8-2.1,4.3-4.5c0.5-2.2-0.6-4.4-2.7-5.2c-2-0.8-4.1-1.4-6.2-2c-3.1-0.9-6.3-1.6-9.3-3c-3.9-1.7-6.1-4.8-6-9
	c0-4.5,2.2-7.8,6.4-9.7c3.4-1.6,7.1-1.9,10.8-1.5c2.7,0.3,5.2,1,7.5,2.3c2.7,1.6,4,4.1,4.7,7c0.1,0.3,0.1,0.6,0.2,0.9
	c0.2,0.5,0,0.8-0.6,0.8c-1.8,0.2-3.6,0.5-5.5,0.8c-0.1,0-0.2,0-0.3,0c-0.1-0.3-0.1-0.6-0.1-0.9c-0.8-3.3-3.1-5.3-6.6-5.7
	c-2.2-0.3-4.4-0.1-6.5,0.5c-1.1,0.3-2,1-2.7,1.8c-1.6,2-1.3,4.7,0.8,6.1c0.9,0.6,2,1,3.1,1.4c4.2,1.3,8.4,2.5,12.6,3.8
	c1.6,0.5,3.1,1.2,4.3,2.4c2.4,2.2,3.3,4.9,3,8.1c-0.5,5.3-3.6,8.6-8.5,10.5c-2.8,1-5.6,1.3-8.6,1.2c-2.4-0.1-4.7-0.4-6.9-1.3
	c-4.1-1.6-6.5-4.7-7.7-8.8c-0.2-0.7-0.3-1.4-0.5-2.1C327,59.1,327.1,59.1,327.1,58.9z"/>
<path class="st0" d="M256.5,42.9c-1.4,0.2-2.7,0.4-4,0.6c-0.6,0.1-1.1,0.1-1.7,0.2c-0.5,0.1-0.7,0-0.8-0.5c-0.4-1.8-1.1-3.4-2.3-4.8
	c-2-2.3-4.7-3-7.6-2.7c-4.7,0.5-7.8,3.2-9,7.7c-1.5,5.2-1.4,10.4,0.1,15.6c0.7,2.4,2.2,4.3,4.3,5.7c1.9,1.2,3.9,1.5,6.1,1.5
	c4.3-0.1,7.9-3,8.9-8c0.1-0.5,0.2-1.1,0.3-1.6c0-0.2,0.3-0.4,0.4-0.4c2,0.3,4,0.6,6.1,1c-0.2,0.8-0.3,1.5-0.5,2.2
	c-1.4,5.3-4.5,9.2-9.8,11.2c-2.4,0.9-4.9,1.1-7.5,0.9c-2.6-0.2-5-0.8-7.2-2c-3.4-1.8-5.6-4.7-7.1-8.2c-1-2.3-1.4-4.8-1.7-7.3
	c-0.4-4.2,0.1-8.4,1.4-12.4c2.2-6.5,7-9.8,13.6-10.9c3.2-0.5,6.4-0.2,9.4,1c4.6,1.8,7.2,5.3,8.4,9.9
	C256.3,41.9,256.4,42.4,256.5,42.9z"/>
<path class="st0" d="M405.4,36.6c0-1.8,0-3.5,0-5.3c1.9,0,3.9,0,5.9,0c0-0.3,0-0.6,0-0.8c0-2.5-0.1-5,0.4-7.5
	c0.7-3.6,3.4-6.2,6.9-6.9c3.1-0.6,6.1-0.3,9.1,0.3c0.3,0.1,0.5,0.2,0.4,0.6c-0.3,1.6-0.6,3.3-0.8,4.9c-0.1,0.3-0.2,0.4-0.6,0.4
	c-1.6-0.1-3.1-0.2-4.7-0.1c-2.4,0.1-3.8,1.2-4,3.6c-0.2,1.8-0.2,3.6-0.2,5.5c0.3,0,0.5,0,0.8,0c2.1,0,4.2,0,6.4,0
	c0.4,0,0.6,0.1,0.6,0.6c0,1.5,0,3.1,0,4.7c-2.6,0-5.1,0-7.6,0c0,11.3,0,22.6,0,33.9c-2.2,0-4.3,0-6.5,0c0-0.2,0-0.4,0-0.6
	c0-10.8,0-21.6,0-32.4c0-0.8,0-0.8-0.8-0.8c-1.5,0-2.9,0-4.4,0C405.9,36.6,405.7,36.6,405.4,36.6z"/>
<path class="st0" d="M281.4,38.5c-1.4-1.1-2.9-1.8-4.7-1.8c-2.6,0-5.1,1.5-6.1,4c-1.1,2.5-1.4,5.2-1.5,8c0,6,0,12.1,0,18.1
	c0,1.2,0,2.5,0,3.7c-2.2,0-4.4,0-6.6,0c0-13,0-26,0-39.1c0.2,0,0.4,0,0.6,0c1.6,0,3.1,0,4.7,0c0.6,0,0.7,0.2,0.7,0.7
	c0,1.2,0,2.5,0,3.7c0,0.2,0,0.4,0.1,0.6c0.1-0.2,0.3-0.3,0.4-0.5c0.5-0.7,1-1.5,1.5-2.2c2-2.7,4.8-3.6,8.1-3.2
	c1.6,0.2,3,0.8,4.4,1.5c0.5,0.3,0.7,0.5,0.4,1.1C282.7,34.9,282.1,36.7,281.4,38.5z"/>
<path class="st0" d="M214.9,70.5c-2.2,0-4.4,0-6.5,0c0-13,0-26.1,0-39.1c2.2,0,4.3,0,6.5,0C214.9,44.4,214.9,57.4,214.9,70.5z"/>
<path class="st0" d="M214.9,24c-2.2,0-4.4,0-6.5,0c0-2.4,0-4.8,0-7.2c2.2,0,4.3,0,6.5,0C214.9,19.2,214.9,21.6,214.9,24z"/>
<path class="st0" d="M242.9,103.1c-0.1,2.3-0.5,4.6-1.5,6.7c-1.6,3.1-5.1,4.6-7.8,4.3c-4-0.4-6.5-2.8-7.5-6.5
	c-0.8-3.1-0.8-6.2,0.1-9.2c0.8-2.8,2.6-4.6,5.4-5.5c4.6-1.5,9.5,1,10.7,5.9C242.5,100.1,242.7,101.6,242.9,103.1z"/>
</svg>
