<?xml version="1.0" encoding="utf-8"?>
<!-- Generator: Adobe Illustrator 26.0.1, SVG Export Plug-In . SVG Version: 6.00 Build 0)  -->
<svg version="1.1" id="Layer_1" xmlns="http://www.w3.org/2000/svg" xmlns:xlink="http://www.w3.org/1999/xlink" x="0px" y="0px"
	 viewBox="0 0 500 100" style="enable-background:new 0 0 500 100;" xml:space="preserve">
<style type="text/css">
	.st0{fill:#FFFFFF;}
</style>
<g>
	<g id="Nav-IRELAND">
		<g id="BlackRock_Wordmark_Blk_RGB">
			<path id="Shape" class="st0" d="M149.8,49.1V11.6h8.5v37.4H149.8z M315.5,35.1c0-9-7-14.7-15.2-14.7c-8.3,0-15.2,5.7-15.2,14.7
				c0,9,7,14.7,15.2,14.7S315.5,44.1,315.5,35.1z M307.1,35.1c0,4.7-3.2,7.4-6.9,7.4s-6.9-2.7-6.9-7.4c0-4.8,3.2-7.3,6.9-7.3
				S307.1,30.3,307.1,35.1z M146.4,38.3c0-4.2-2.2-7.4-6.1-8.9c3.7-2,5-4.7,5-7.8c0-5.5-4-10-12.8-9.9h-16.9v37.4h17.7
				C142.1,49.1,146.4,44.7,146.4,38.3z M136.2,22.7c0,2.5-1.6,4-4.7,4h-7.1v-7.8h7.1C134.3,18.9,136.2,20.2,136.2,22.7z M137,37.7
				c0,2.4-1.7,4.1-4.9,4.1h-7.7v-8.1h7.7C135.2,33.7,137,35.2,137,37.7z M220.6,28.1c-2.3-4.9-6.7-7.6-13.3-7.6
				c-7.8,0-14.8,4.9-14.8,14.6c0,9.5,6.1,14.7,14.7,14.7c6,0,11-2.4,13.4-7.5l-6.9-3.5c-1.2,2.3-3.2,3.7-6.2,3.7
				c-4,0-6.5-2.8-6.5-7.4s2.9-7.3,6.4-7.3c2.8,0,4.8,1.2,6.1,4L220.6,28.1z M346.2,28.1c-2.3-4.9-6.7-7.6-13.3-7.6
				c-7.8,0-14.8,4.9-14.8,14.6c0,9.5,6.1,14.7,14.7,14.7c6,0,11-2.4,13.4-7.5l-6.9-3.5c-1.2,2.3-3.2,3.7-6.2,3.7
				c-4,0-6.5-2.8-6.5-7.4s2.9-7.3,6.4-7.3c2.8,0,4.8,1.2,6.1,4L346.2,28.1z M274.7,49.1l-7.1-12.6h-5.5v12.6h-8.8V11.6h15.9
				c8.6,0,14.6,4.1,14.6,12.2c0,5.1-2.5,8.8-7.1,11l8.2,14.2H274.7z M262.2,29.1h6.5c4.1,0,6-2.3,6-5c0-3.2-1.9-5-6-5h-6.5V29.1z
				 M191.1,48.6v-5.9c-0.4,0.1-0.9,0.2-1.5,0.2c-1.1,0-1.7-0.6-1.7-1.6v-9.7c0-7.3-4.9-11.1-12.9-11.1c-5.3,0-9.7,1.9-12.5,4.4
				l4.7,5.3c1.9-1.7,4.4-2.7,6.8-2.7c3.7,0,5.5,1.9,5.5,4.9v0.9c-1.8-0.4-4-0.8-6.7-0.8c-6.8,0-11.2,3.3-11.2,8.7
				c0,5.6,3.7,8.5,9.4,8.5c3.9,0,7.4-1.6,9.2-3.7c1.1,2.8,3.5,3.5,5.8,3.5C187.7,49.5,189.5,49.3,191.1,48.6z M179.6,39.8
				c0,2.5-2.4,4.2-5.3,4.2c-2.7,0-4-1.4-4-3.2c0-2,1.5-3.4,4.4-3.4c1.8,0,3.4,0.3,4.8,0.6V39.8z M376.7,49.1l-10-17.4l9.4-10.2h-9.5
				l-9.9,11V11.7h-8.5v37.4h8.5v-6.8l4.1-4.3l6.3,11.1L376.7,49.1L376.7,49.1z M251.1,49.1l-10-17.4l9.4-10.2H241l-9.8,11V11.7h-8.5
				v37.4h8.5v-6.8l4.1-4.3l6.3,11.1L251.1,49.1L251.1,49.1z M381.9,43.9c1.8,0,2.8,1.1,2.8,2.8s-1,2.8-2.8,2.8
				c-1.8,0-2.8-1.1-2.8-2.8S380.1,43.9,381.9,43.9z M381.9,49c1.4,0,2.3-0.8,2.3-2.4c0-1.6-1-2.4-2.3-2.4c-1.4,0-2.3,0.8-2.3,2.4
				C379.5,48.2,380.5,49,381.9,49z M380.8,45.2h1.1c0.7,0,1,0.4,1,0.9c0,0.5-0.2,0.7-0.6,0.9l0.5,1h-0.5l-0.5-0.9h-0.6V48h-0.5V45.2
				z M381.3,45.6v1h0.6c0.4,0,0.6-0.1,0.6-0.5c0-0.3-0.2-0.5-0.5-0.5L381.3,45.6L381.3,45.6z"/>
		</g>
	</g>
	<g>
		<rect x="26.6" y="60.3" class="st0" width="10.5" height="26.7"/>
		<rect x="11.3" y="60.2" class="st0" width="10.7" height="26.7"/>
		<rect x="11.3" y="11.4" class="st0" width="10.7" height="27"/>
		<circle class="st0" cx="16.8" cy="48.8" r="5"/>
		<path class="st0" d="M42.7,28.3v10.1h41.4v0c2.7-0.2,4.7-2.4,4.7-5s-2.1-4.9-4.7-5v0L42.7,28.3L42.7,28.3z"/>
		<path class="st0" d="M42.7,60.3v10.1h41.4v0c2.7-0.2,4.7-2.4,4.7-5c0-2.7-2.1-4.9-4.7-5v0L42.7,60.3L42.7,60.3z"/>
		<path class="st0" d="M106.9,65.3c0.2-9.2-9.4-16.5-9.4-16.5c2.5-1.7,12.7-14.9,4.9-26.4c-5.9-8.8-15.2-10.7-19-10.9l0,0H26.6V22
			l0,0v16.4h10.5V22h46.3l0,0c3.7,0.1,11.9,2.1,12,11c0.1,8.1-6.1,10.8-10.2,10.8H26.6v10.1h0.2H27h34.4h20.3l0,0
			c6.7-0.1,13.8,2.3,13.7,11.1c-0.2,11.7-13.7,11.2-13.7,11.2H42.8v10.7c0,0,14.3,0,38.9,0C106.3,86.9,106.7,72.9,106.9,65.3z"/>
	</g>
	<g>
		<path class="st0" d="M115.8,52.4h12c2.8,0,5.3,0.3,7.5,0.9c2.1,0.6,4,1.6,5.5,2.9c1.6,1.3,2.7,3,3.5,5.2c0.8,2.2,1.2,4.7,1.2,7.7
			c0,5.6-1.5,9.9-4.5,13c-3,3-7.4,4.5-13.2,4.5h-12V52.4z M123.7,79.6h4.3c3.2,0,5.6-0.8,7-2.5c1.4-1.7,2.1-4.2,2.1-7.7
			c0-3.3-0.7-5.7-2.1-7.4s-3.8-2.5-7.1-2.5h-4.3V79.6z"/>
		<path class="st0" d="M149.2,55.2c0-1.1,0.4-2.1,1.2-2.8c0.8-0.7,1.7-1.1,2.9-1.1c1.2,0,2.1,0.4,2.9,1.1c0.8,0.7,1.2,1.6,1.2,2.8
			c0,1.1-0.4,2-1.2,2.8c-0.8,0.7-1.8,1.1-2.9,1.1c-1.2,0-2.2-0.4-2.9-1.1C149.6,57.2,149.2,56.3,149.2,55.2z M157,86.6h-7.4V61.7
			h7.4V86.6z"/>
		<path class="st0" d="M159.4,90c0-2.5,1.5-4.4,4.5-5.8c-0.8-0.4-1.4-0.9-1.9-1.4c-0.5-0.5-0.7-1.1-0.7-1.9c0-0.9,0.3-1.6,0.8-2.3
			c0.5-0.7,1.3-1.3,2.2-2c-1.2-0.7-2.1-1.7-2.7-3c-0.6-1.2-0.9-2.6-0.9-4.1c0-1.5,0.3-2.8,0.9-3.9c0.6-1.1,1.4-2,2.4-2.7
			c1-0.7,2.2-1.2,3.4-1.5c1.3-0.3,2.6-0.5,4.1-0.5c3.2,0,5.8,0.7,7.6,2c0.8-1.9,2.4-2.8,4.8-2.8c0.6,0,1.2,0.1,1.9,0.3
			c0.5,0.2,1.1,0.4,1.7,0.7l-1.7,5.2c-1-0.3-1.8-0.4-2.4-0.4c-0.5,0-1,0.1-1.7,0.2c0.4,1.1,0.7,2.3,0.7,3.4c0,1.5-0.3,2.9-0.8,4
			c-0.6,1.1-1.4,2.1-2.4,2.7c-1,0.7-2.1,1.2-3.4,1.5c-1.3,0.3-2.7,0.5-4.2,0.5c-0.7,0-1.6-0.1-2.9-0.2c-0.1,0.2-0.2,0.5-0.2,0.9
			c0,0.2,0.2,0.4,0.5,0.5c0.3,0.1,0.8,0.3,1.5,0.4c0,0,0.3,0.1,0.9,0.2c0.5,0.1,1,0.2,1.3,0.3c0,0,0.9,0.2,2.6,0.5
			c0.8,0.2,1.4,0.3,2,0.5c0.5,0.1,1.2,0.3,1.9,0.5c0.7,0.2,1.3,0.5,1.8,0.7c0.5,0.3,1,0.6,1.5,1c0.5,0.4,1,0.8,1.3,1.3
			c0.3,0.5,0.6,1.1,0.8,1.7c0.2,0.7,0.3,1.4,0.3,2.2c0,1.3-0.3,2.4-0.8,3.4c-0.6,1-1.3,1.8-2.1,2.4c-0.9,0.6-1.9,1.1-3,1.5
			c-1.2,0.4-2.3,0.6-3.4,0.8c-1.1,0.1-2.2,0.2-3.4,0.2c-0.9,0-1.7,0-2.6-0.1c-0.9-0.1-1.8-0.2-2.8-0.4c-1-0.2-1.9-0.5-2.8-0.8
			c-0.8-0.4-1.6-0.8-2.3-1.3c-0.7-0.5-1.3-1.2-1.7-1.9C159.6,91.8,159.4,90.9,159.4,90z M169.2,85.9c-1.6,0.8-2.4,1.7-2.4,2.9
			c0,1.4,1.2,2.2,3.7,2.5c0.9,0.1,1.6,0.1,2,0.1c3.3,0,5-0.7,5-2.2c0-0.7-0.3-1.3-1-1.6c-0.9-0.4-2.2-0.8-3.8-1L169.2,85.9z
			 M168,69.6c0,1,0.4,1.7,1.1,2.2c0.7,0.5,1.6,0.7,2.6,0.7c1.1,0,1.9-0.2,2.6-0.7c0.7-0.5,1-1.2,1-2.2c0-1-0.3-1.7-1-2.1
			c-0.7-0.4-1.6-0.6-2.6-0.6c-0.6,0-1.2,0.1-1.7,0.3c-0.5,0.2-1,0.5-1.4,0.9C168.2,68.4,168,69,168,69.6z"/>
		<path class="st0" d="M188,55.2c0-1.1,0.4-2.1,1.2-2.8c0.8-0.7,1.7-1.1,2.9-1.1c1.2,0,2.1,0.4,2.9,1.1c0.8,0.7,1.2,1.6,1.2,2.8
			c0,1.1-0.4,2-1.2,2.8c-0.8,0.7-1.8,1.1-2.9,1.1c-1.2,0-2.2-0.4-2.9-1.1C188.3,57.2,188,56.3,188,55.2z M195.7,86.6h-7.4V61.7h7.4
			V86.6z"/>
		<path class="st0" d="M208.8,68.1v10c0,1.7,0.8,2.5,2.3,2.5c0.7,0,1.6-0.2,2.7-0.7l1.7,5.5c-2,1.1-4.2,1.6-6.5,1.6
			c-2.7,0-4.7-0.7-5.8-2.1c-1.1-1.4-1.7-3.6-1.7-6.5V68.1h-3.1v-6.4h3.1v-5.1l7.4-1.9v7h5.4v6.4H208.8z"/>
		<path class="st0" d="M227.2,66.9c-1.1,0-2,0.3-2.6,0.8c-0.6,0.5-1.1,1.4-1.4,2.5l-6.5-2.2c0.2-1.1,0.5-2,1-2.9
			c0.5-0.8,1-1.5,1.7-2s1.4-0.9,2.3-1.2c0.9-0.3,1.8-0.5,2.7-0.7c0.9-0.1,1.9-0.2,3-0.2c1.5,0,2.9,0.2,4.2,0.5
			c1.3,0.3,2.4,0.9,3.4,1.6c1,0.7,1.8,1.7,2.4,2.9c0.6,1.2,0.9,2.7,0.9,4.3v8.5c0,0.7,0.1,1.1,0.4,1.5s0.7,0.5,1.3,0.5
			c0.7,0,1.1,0,1.4-0.1v5.6c-1.6,0.6-3.1,1-4.6,1c-1.2,0-2.2-0.3-3.1-0.8c-0.9-0.5-1.4-1.3-1.6-2.4h-0.2c-1.6,2.2-4.1,3.3-7.5,3.3
			c-2.6,0-4.7-0.7-6.3-2c-1.7-1.3-2.5-3.2-2.5-5.7c0-1.8,0.4-3.4,1.3-4.6c0.8-1.2,1.9-2.1,3.3-2.6c1.4-0.5,2.9-0.8,4.8-0.8
			c2.3,0,4.3,0.4,6.1,1.1v-2c0-1.2-0.3-2.1-1-2.8C229.3,67.3,228.4,66.9,227.2,66.9z M230.9,77.6c-1.2-0.4-2.6-0.7-4.1-0.7
			c-2.3,0-3.4,0.8-3.4,2.5c0,1.7,1.1,2.5,3.2,2.5c1.9,0,3.3-0.8,4.3-2.5V77.6z"/>
		<path class="st0" d="M251.1,86.6h-7V52.4h7V86.6z"/>
		<path class="st0" d="M262.3,80.7l-2.2,5.9h-7.4l12.5-34.2h9.5l12,34.2h-8.3l-2.1-5.9H262.3z M274,73.9l-3.4-10.2l-1-3.5l-1.1,3.5
			l-3.6,10.2H274z"/>
		<path class="st0" d="M300.2,69.7c0-1.9-1.1-2.9-3.1-2.9c-0.5,0-0.9,0.1-1.3,0.2c-0.4,0.1-0.8,0.3-1.1,0.6
			c-0.3,0.3-0.5,0.7-0.5,1.1c0,0.8,0.4,1.3,1.3,1.6c1,0.5,2.4,0.9,4,1.2c3.1,0.8,5.2,1.7,6.5,2.7c0.8,0.7,1.3,1.4,1.6,2.2
			c0.3,0.8,0.4,1.8,0.4,2.9c0,1.4-0.3,2.7-1,3.8c-0.6,1.1-1.5,1.9-2.6,2.5c-1.1,0.6-2.2,1-3.5,1.3c-1.2,0.3-2.5,0.4-3.9,0.4
			c-1.1,0-2.1,0-3-0.2c-0.9-0.1-1.9-0.3-2.8-0.6c-1-0.3-1.8-0.7-2.5-1.2c-0.7-0.5-1.3-1.2-1.8-2.1c-0.5-0.9-0.8-1.9-1-3l6.9-2
			c0.1,2.2,1.4,3.3,4,3.3c2.4,0,3.6-0.6,3.6-1.9c0-0.8-0.5-1.3-1.4-1.7c-1.1-0.4-2.4-0.8-4-1.1c-1-0.2-1.9-0.4-2.6-0.7
			c-0.7-0.2-1.5-0.6-2.3-1c-0.8-0.4-1.4-0.9-1.9-1.4c-0.5-0.5-0.9-1.2-1.2-2c-0.3-0.8-0.5-1.7-0.5-2.8c0-1.4,0.3-2.7,0.9-3.7
			c0.6-1.1,1.4-1.9,2.4-2.5c1-0.6,2.1-1.1,3.3-1.3c1.2-0.3,2.4-0.4,3.8-0.4c3.1,0,5.6,0.6,7.5,1.7c1,0.7,1.8,1.4,2.2,2.3
			c0.5,0.8,0.7,1.8,0.7,3L300.2,69.7z"/>
		<path class="st0" d="M323.1,69.7c0-1.9-1.1-2.9-3.1-2.9c-0.5,0-0.9,0.1-1.3,0.2c-0.4,0.1-0.8,0.3-1.1,0.6
			c-0.3,0.3-0.5,0.7-0.5,1.1c0,0.8,0.4,1.3,1.3,1.6c1,0.5,2.4,0.9,4,1.2c3.1,0.8,5.2,1.7,6.5,2.7c0.8,0.7,1.3,1.4,1.6,2.2
			c0.3,0.8,0.4,1.8,0.4,2.9c0,1.4-0.3,2.7-1,3.8c-0.6,1.1-1.5,1.9-2.6,2.5c-1.1,0.6-2.2,1-3.5,1.3c-1.2,0.3-2.5,0.4-3.9,0.4
			c-1.1,0-2.1,0-3-0.2c-0.9-0.1-1.9-0.3-2.8-0.6c-1-0.3-1.8-0.7-2.5-1.2c-0.7-0.5-1.3-1.2-1.8-2.1c-0.5-0.9-0.8-1.9-1-3l6.9-2
			c0.1,2.2,1.4,3.3,4,3.3c2.4,0,3.6-0.6,3.6-1.9c0-0.8-0.5-1.3-1.4-1.7c-1.1-0.4-2.4-0.8-4-1.1c-1-0.2-1.9-0.4-2.6-0.7
			c-0.7-0.2-1.5-0.6-2.3-1c-0.8-0.4-1.4-0.9-1.9-1.4c-0.5-0.5-0.9-1.2-1.2-2c-0.3-0.8-0.5-1.7-0.5-2.8c0-1.4,0.3-2.7,0.9-3.7
			c0.6-1.1,1.4-1.9,2.4-2.5c1-0.6,2.1-1.1,3.3-1.3c1.2-0.3,2.4-0.4,3.8-0.4c3.1,0,5.6,0.6,7.5,1.7c1,0.7,1.8,1.4,2.2,2.3
			c0.5,0.8,0.7,1.8,0.7,3L323.1,69.7z"/>
		<path class="st0" d="M345.1,87.4c-4,0-7-1.1-9.1-3.2c-2.1-2.1-3.2-5.2-3.2-9.3c0-1.6,0.1-3.1,0.4-4.5s0.8-2.7,1.4-3.8
			s1.4-2.2,2.4-3c1-0.8,2.1-1.4,3.5-1.9c1.4-0.4,3-0.7,4.7-0.7c3.5,0,6.3,0.8,8.3,2.5c2,1.7,3,4.3,3,7.9c0,0.7,0,1.6-0.1,2.7
			c-0.1,1.1-0.2,2-0.3,2.5h-15.6c0.1,3.4,1.7,5.1,4.8,5.1c2.2,0,3.4-1.1,3.9-3.2l6.5,2.3c-0.2,1-0.5,1.9-1.1,2.6
			c-0.5,0.8-1.1,1.4-1.8,1.9c-0.7,0.5-1.5,0.9-2.4,1.2c-0.9,0.3-1.8,0.5-2.7,0.6C347,87.3,346.1,87.4,345.1,87.4z M348.6,71.3
			c0,0,0-0.1,0-0.3c0-0.1,0-0.2,0-0.3c0-1.3-0.2-2.3-0.7-3c-0.5-0.7-1.4-1-2.7-1c-0.6,0-1.3,0.1-1.9,0.3c-0.6,0.2-1.1,0.6-1.5,1
			c-0.8,0.9-1.2,1.9-1.2,3.2H348.6z"/>
		<path class="st0" d="M368.6,68.1v10c0,1.7,0.8,2.5,2.3,2.5c0.7,0,1.6-0.2,2.7-0.7l1.7,5.5c-2,1.1-4.2,1.6-6.5,1.6
			c-2.7,0-4.7-0.7-5.8-2.1c-1.1-1.4-1.7-3.6-1.7-6.5V68.1h-3.1v-6.4h3.1v-5.1l7.4-1.9v7h5.4v6.4H368.6z"/>
	</g>
</g>
</svg>
