<?xml version="1.0" encoding="UTF-8"?>
<svg id="Layer_1" data-name="Layer 1" xmlns="http://www.w3.org/2000/svg" viewBox="0 0 28.75 23.33">
  <defs>
    <style>
      .cls-1 {
        fill: #fff;
      }
    </style>
  </defs>
  <rect class="cls-1" x="5" y="4.95" width="5.33" height="2"/>
  <path class="cls-1" d="m28.56,8.07c-.13-.29-.31-.55-.54-.77-.23-.22-.5-.39-.8-.5-.29-.11-.6-.15-.9-.14h-.31v-3c0-.98-.38-1.9-1.07-2.59-.69-.69-1.61-1.07-2.59-1.07H3.67c-.98,0-1.9.38-2.59,1.07C.38,1.77,0,2.69,0,3.67v16c0,.97.39,1.91,1.07,2.59s1.61,1.07,2.59,1.07h18.67c.98,0,1.9-.38,2.59-1.07.68-.68,1.07-1.63,1.07-2.59v-3h.41c.62,0,1.21-.24,1.65-.68s.68-1.03.68-1.65v-5.33c0-.32-.06-.63-.19-.93Zm-4.56,11.59c0,.44-.18.87-.49,1.18-.32.31-.73.49-1.18.49H3.67c-.45,0-.86-.17-1.18-.49-.31-.31-.49-.74-.49-1.18V3.67c0-.45.17-.86.49-1.18.31-.31.73-.49,1.18-.49h18.67c.45,0,.86.17,1.18.49.31.32.49.73.49,1.18v3h-1.35c-1.29-.01-2.57.44-3.54,1.32-.97.88-1.57,2.08-1.69,3.42-.04.68.06,1.35.3,2,.24.64.59,1.22,1.07,1.71.47.5,1.03.88,1.66,1.15.63.27,1.29.4,1.97.4h1.6v3Zm2.75-5.33c0,.09-.03.17-.1.24-.06.06-.15.1-.24.1h-4.01c-.41,0-.81-.08-1.18-.24-.38-.16-.71-.4-.99-.69-.28-.3-.5-.64-.64-1.03-.14-.39-.2-.79-.18-1.16.07-.8.44-1.53,1.03-2.07.58-.52,1.32-.81,2.12-.81.02,0,.04,0,.07,0h3.77s.09,0,.13.02c.04.02.08.04.11.07.03.03.06.07.08.11.02.04.03.09.03.14v5.33Z"/>
</svg>