<?xml version="1.0" encoding="utf-8"?>
<!-- Generator: Adobe Illustrator 26.0.1, SVG Export Plug-In . SVG Version: 6.00 Build 0)  -->
<svg version="1.1" id="Layer_1" xmlns="http://www.w3.org/2000/svg" xmlns:xlink="http://www.w3.org/1999/xlink" x="0px" y="0px"
	 viewBox="0 0 75.4 50" style="enable-background:new 0 0 75.4 50;" xml:space="preserve">
<style type="text/css">
	.st0{fill:#F26739;}
</style>
<g>
	<rect x="18.9" y="29.3" class="st0" width="6.1" height="17.6"/>
	<rect x="10" y="29.2" class="st0" width="6.2" height="17.6"/>
	<rect x="10" y="3.1" class="st0" width="6.2" height="17.5"/>
	<circle class="st0" cx="13.2" cy="24.7" r="2.9"/>
	<path class="st0" d="M28.2,12.9v5.8h24v0c1.5-0.1,2.7-1.4,2.7-2.9s-1.2-2.8-2.7-2.9v0L28.2,12.9L28.2,12.9z"/>
	<path class="st0" d="M28.2,31.4v5.8h24v0c1.5-0.1,2.7-1.4,2.7-2.9c0-1.6-1.2-2.8-2.7-2.9v0L28.2,31.4L28.2,31.4z"/>
	<path class="st0" d="M65.4,34.3c0.1-5.4-5.4-9.6-5.4-9.6c1.5-1,7.3-8.6,2.8-15.3c-3.4-5.1-8.8-6.2-11-6.3l0,0H18.9v6.1l0,0v11.4H25
		V9.2h26.8l0,0c2.1,0.1,6.9,1.2,6.9,6.3c0,4.7-3.6,6.3-5.9,6.3H18.9v5.8H19h0.1H39h11.8l0,0c3.9-0.1,8,1.3,7.9,6.4
		c-0.1,6.8-7.9,6.5-7.9,6.5H28.3v6.2c0,0,8.3,0,22.5,0C65,46.9,65.3,38.7,65.4,34.3z"/>
</g>
</svg>
