<?xml version="1.0" encoding="utf-8"?>
<!-- Generator: Adobe Illustrator 26.0.1, SVG Export Plug-In . SVG Version: 6.00 Build 0)  -->
<svg version="1.1" id="Layer_1" xmlns="http://www.w3.org/2000/svg" xmlns:xlink="http://www.w3.org/1999/xlink" x="0px" y="0px"
	 viewBox="0 0 75.4 50" style="enable-background:new 0 0 75.4 50;" xml:space="preserve">
<style type="text/css">
	.st0{fill:#FFFFFF;}
</style>
<g>
	<rect x="19.9" y="31.8" class="st0" width="6.4" height="16.2"/>
	<rect x="10.6" y="31.7" class="st0" width="6.5" height="16.2"/>
	<rect x="10.6" y="2" class="st0" width="6.5" height="16.4"/>
	<circle class="st0" cx="13.9" cy="24.7" r="3.1"/>
	<path class="st0" d="M29.7,12.3v6.1h25.2v0c1.6-0.1,2.9-1.4,2.9-3.1s-1.3-3-2.9-3.1v0L29.7,12.3L29.7,12.3z"/>
	<path class="st0" d="M29.7,31.7v6.1h25.2v0c1.6-0.1,2.9-1.4,2.9-3.1c0-1.6-1.3-3-2.9-3.1v0L29.7,31.7L29.7,31.7z"/>
	<path class="st0" d="M68.7,34.8c0.1-5.6-5.7-10-5.7-10c1.5-1,7.7-9,3-16.1c-3.6-5.4-9.2-6.5-11.5-6.6l0,0H19.9v6.4l0,0v10h6.4v-10
		h28.1l0,0c2.2,0.1,7.2,1.3,7.3,6.7c0,4.9-3.7,6.6-6.2,6.6H19.9v6.1H20h0.1H41h12.4l0,0c4.1-0.1,8.4,1.4,8.3,6.7
		c-0.1,7.1-8.3,6.8-8.3,6.8H29.7v6.5c0,0,8.7,0,23.6,0C68.3,47.9,68.6,39.4,68.7,34.8z"/>
</g>
</svg>
